<svg id="Capa_1" enable-background="new 0 0 512 512" height="512" viewBox="0 0 512 512" width="512" xmlns="http://www.w3.org/2000/svg"><g><g><g><path d="m266.1 370.577c12.491 0 22.653-10.162 22.653-22.652s-10.162-22.652-22.653-22.652h-90.914c-12.491 0-22.652 10.162-22.652 22.652s10.162 22.652 22.652 22.652zm-98.567-22.652c0-4.22 3.433-7.652 7.652-7.652h90.915c4.22 0 7.653 3.433 7.653 7.652s-3.434 7.652-7.653 7.652h-90.914c-4.22 0-7.653-3.432-7.653-7.652z"/><path d="m259.915 241.858c0 20.678 16.822 37.5 37.5 37.5s37.5-16.822 37.5-37.5-16.822-37.5-37.5-37.5-37.5 16.822-37.5 37.5zm37.5-22.5c12.406 0 22.5 10.093 22.5 22.5s-10.094 22.5-22.5 22.5-22.5-10.093-22.5-22.5 10.094-22.5 22.5-22.5z"/><path d="m143.871 204.358c-20.678 0-37.5 16.822-37.5 37.5s16.822 37.5 37.5 37.5 37.5-16.822 37.5-37.5-16.823-37.5-37.5-37.5zm0 60c-12.407 0-22.5-10.093-22.5-22.5s10.093-22.5 22.5-22.5 22.5 10.093 22.5 22.5-10.094 22.5-22.5 22.5z"/><path d="m256.632 477.972c4.142 0 7.5-3.358 7.5-7.5v-37c0-4.142-3.358-7.5-7.5-7.5h-74c-4.142 0-7.5 3.358-7.5 7.5v37c0 4.142 3.358 7.5 7.5 7.5zm-66.5-37h59v22h-59z"/><path d="m503.488 95.652c4.143 0 7.5-3.358 7.5-7.5v-60.449c0-15.275-12.427-27.703-27.703-27.703h-208.094c-15.275 0-27.703 12.428-27.703 27.703v115.737h-87.357c-4.142 0-7.5 3.358-7.5 7.5s3.358 7.5 7.5 7.5h87.357v2.605c0 4.577 1.123 8.895 3.097 12.703h-141.06c-20.846 0-37.805 16.959-37.805 37.805v60.61c0 20.846 16.959 37.805 37.805 37.805h222.236c20.846 0 37.805-16.959 37.805-37.805v-60.61c0-8.56-2.864-16.461-7.677-22.805h22.982l-.002 164.232c0 18.141-14.759 32.9-32.9 32.9h-262.651c-18.141 0-32.9-14.759-32.9-32.9v-161.63c0-18.146 14.759-32.91 32.9-32.91h35.777c4.142 0 7.5-3.358 7.5-7.5s-3.358-7.5-7.5-7.5h-35.777c-26.412 0-47.9 21.492-47.9 47.91v12.703h-12.703c-15.275 0-27.703 12.428-27.703 27.703v80.813c0 15.275 12.428 27.703 27.703 27.703h12.704v12.708c0 26.412 21.488 47.9 47.9 47.9h47.34c-15.557 12.493-25.542 31.653-25.542 53.112v5.943c0 4.142 3.358 7.5 7.5 7.5s7.5-3.358 7.5-7.5v-5.943c0-29.285 23.825-53.109 53.11-53.109h80.813c29.284 0 53.109 23.825 53.109 53.109v43.008h-21.365v-12.703c0-4.142-3.357-7.5-7.5-7.5s-7.5 3.358-7.5 7.5v12.703h-114.302v-12.703c0-4.142-3.358-7.5-7.5-7.5s-7.5 3.358-7.5 7.5v12.703h-21.366v-2.054c0-4.142-3.358-7.5-7.5-7.5s-7.5 3.358-7.5 7.5v9.554c0 4.142 3.358 7.5 7.5 7.5h202.032c4.143 0 7.5-3.358 7.5-7.5v-50.508c0-21.458-9.985-40.619-25.541-53.112h49.361c26.412 0 47.9-21.488 47.9-47.9v-12.708h12.705c15.276 0 27.704-12.428 27.704-27.703v-80.813c0-14.835-11.723-26.982-26.392-27.67l19.375-15.338h50.025c15.275 0 27.703-12.428 27.703-27.703v-37.811c0-4.142-3.357-7.5-7.5-7.5s-7.5 3.358-7.5 7.5v37.811c0 7.004-5.698 12.703-12.703 12.703h-52.635c-1.689 0-3.33.571-4.655 1.62l-26.125 20.682v-14.802c0-4.142-3.357-7.5-7.5-7.5h-117.179c-7.005 0-12.703-5.699-12.703-12.703v-133.342c0-7.004 5.698-12.703 12.703-12.703h208.094c7.005 0 12.703 5.699 12.703 12.703v60.449c0 4.142 3.358 7.5 7.5 7.5zm-474.773 229.62c-7.004 0-12.703-5.699-12.703-12.703v-80.813c0-7.004 5.699-12.703 12.703-12.703h12.704v106.22h-12.704zm396.562-93.516v80.813c0 7.004-5.699 12.703-12.704 12.703h-12.705v-106.22h12.705c7.005.001 12.704 5.699 12.704 12.704zm-70.712-20.203v60.61c0 12.575-10.23 22.805-22.805 22.805h-222.235c-12.575 0-22.805-10.23-22.805-22.805v-60.61c0-12.575 10.23-22.805 22.805-22.805h165.667 56.569c12.574 0 22.804 10.23 22.804 22.805z"/><path d="m477.653 94.374c0-4.142-3.357-7.5-7.5-7.5h-181.83c-4.143 0-7.5 3.358-7.5 7.5s3.357 7.5 7.5 7.5h181.83c4.143 0 7.5-3.358 7.5-7.5z"/><path d="m470.153 56.61h-181.83c-4.143 0-7.5 3.358-7.5 7.5s3.357 7.5 7.5 7.5h181.83c4.143 0 7.5-3.358 7.5-7.5s-3.357-7.5-7.5-7.5z"/><path d="m288.323 117.138c-4.143 0-7.5 3.358-7.5 7.5s3.357 7.5 7.5 7.5h111.118c4.143 0 7.5-3.358 7.5-7.5s-3.357-7.5-7.5-7.5z"/></g></g></g></svg>