<svg id="Layer_5" enable-background="new 0 0 64 64" height="512" viewBox="0 0 64 64" width="512" xmlns="http://www.w3.org/2000/svg"><g><g><path d="m60 18h-34.697c-1.433 4.049-4.97 7.092-9.303 7.82v6.18c0 1.105.895 2 2 2h42c1.105 0 2-.895 2-2v-12c0-1.105-.895-2-2-2z" fill="#f0bc5e"/></g><g><path d="m15 47h7v2h-7z"/><path d="m11 47h2v2h-2z"/><path d="m57 28.376c0 .344-.28.624-.624.624-.307 0-.565-.219-.616-.521l-.609-3.657c-.177-1.056-1.081-1.822-2.151-1.822s-1.974.766-2.151 1.822l-.609 3.657c-.051.302-.309.521-.616.521-.344 0-.624-.28-.624-.624v-7.376h-2v7.376c0 1.447 1.177 2.624 2.624 2.624 1.288 0 2.377-.922 2.588-2.192l.609-3.656c.029-.176.327-.175.356 0l.609 3.656c.211 1.271 1.3 2.193 2.588 2.193 1.449-.001 2.626-1.178 2.626-2.625v-7.376h-2z"/><path d="m43 28.376c0 .344-.28.624-.624.624-.307 0-.565-.219-.616-.521l-.609-3.657c-.177-1.056-1.081-1.822-2.151-1.822s-1.974.766-2.151 1.822l-.609 3.657c-.051.302-.309.521-.616.521-.344 0-.624-.28-.624-.624v-7.376h-2v7.376c0 1.447 1.177 2.624 2.624 2.624 1.288 0 2.377-.922 2.588-2.192l.609-3.656c.029-.176.327-.175.356 0l.609 3.656c.211 1.271 1.3 2.193 2.588 2.193 1.449-.001 2.626-1.178 2.626-2.625v-7.376h-2z"/><path d="m60 17h-33.363c.229-.965.363-1.966.363-3 0-7.168-5.832-13-13-13s-13 5.832-13 13c0 3.675 1.54 6.992 4 9.359v24.641c0 2.757 2.243 5 5 5h13.612l-1.333 4h-1.279c-2.757 0-5 2.243-5 5v1h32v-1c0-2.757-2.243-5-5-5h-1.279l-1.333-4h13.612c2.757 0 5-2.243 5-5v-13h1c1.654 0 3-1.346 3-3v-12c0-1.654-1.346-3-3-3zm-42.286 7.341c.553-.919 1.023-2.046 1.391-3.341h3.374c-1.247 1.507-2.891 2.666-4.765 3.341zm.286 10.659h35v8h-42v-16.363c.965.229 1.966.363 3 .363.338 0 .669-.025 1-.051v5.051c0 1.654 1.346 3 3 3zm-12.479-14h3.374c.368 1.295.838 2.422 1.391 3.341-1.874-.675-3.518-1.834-4.765-3.341zm8.479-18c1.075 0 2.22 1.527 3.009 4h-6.018c.789-2.473 1.934-4 3.009-4zm3.519 6c.244 1.209.408 2.553.46 4h-7.958c.052-1.447.217-2.791.46-4zm7.43 4h-4.971c-.046-1.419-.184-2.763-.409-4h4.217c.626 1.221 1.034 2.57 1.163 4zm-10.949 12c-1.075 0-2.22-1.527-3.009-4h6.018c-.789 2.473-1.934 4-3.009 4zm-3.519-6c-.244-1.209-.408-2.553-.46-4h7.958c-.052 1.447-.217 2.791-.46 4zm-2.459-6h-4.971c.13-1.43.537-2.779 1.164-4h4.217c-.226 1.237-.365 2.581-.41 4zm0 2c.046 1.419.184 2.763.409 4h-4.217c-.626-1.221-1.034-2.57-1.164-4zm15.764 4h-4.217c.225-1.237.364-2.581.409-4h4.971c-.129 1.43-.537 2.779-1.163 4zm-1.307-12h-3.374c-.368-1.295-.838-2.422-1.391-3.341 1.874.675 3.518 1.834 4.765 3.341zm-12.193-3.341c-.553.919-1.023 2.046-1.391 3.341h-3.374c1.247-1.507 2.891-2.666 4.765-3.341zm35.543 57.341h-27.658c.413-1.164 1.525-2 2.829-2h22c1.304 0 2.416.836 2.829 2zm-6.217-4h-15.224l1.333-4h12.558zm17.388-9c0 1.654-1.346 3-3 3h-44c-1.654 0-3-1.346-3-3v-23.063c.633.407 1.298.767 2 1.06v17.003c0 1.103.897 2 2 2h42c1.103 0 2-.897 2-2v-8h2zm4-16c0 .551-.449 1-1 1h-42c-.551 0-1-.449-1-1v-5.363c.688-.163 1.359-.371 2-.64v2.379c0 1.447 1.177 2.624 2.624 2.624 1.288 0 2.377-.922 2.588-2.192l.609-3.656c.029-.176.327-.175.356 0l.609 3.656c.211 1.271 1.3 2.193 2.588 2.193 1.449-.001 2.626-1.178 2.626-2.625v-7.376h-2v7.376c0 .344-.28.624-.624.624-.307 0-.565-.219-.616-.521l-.609-3.657c-.177-1.056-1.081-1.822-2.151-1.822s-1.974.766-2.151 1.822l-.609 3.657c-.051.302-.309.521-.616.521-.344 0-.624-.28-.624-.624v-3.439c2.212-1.421 3.972-3.486 4.997-5.937h34.003c.551 0 1 .449 1 1z"/><path d="m49 39h2v2h-2z"/><path d="m41 39h2v2h-2z"/><path d="m45 39h2v2h-2z"/></g></g></svg>