<svg height="480pt" viewBox="-63 0 479 480" width="480pt" xmlns="http://www.w3.org/2000/svg"><path d="m.5 472c0 4.417969 3.582031 8 8 8h336c4.417969 0 8-3.582031 8-8v-464c0-4.417969-3.582031-8-8-8h-256c-.152344 0-.28125.078125-.433594.0898438-.761718.0390622-1.511718.1914062-2.230468.4453122-.230469.082032-.457032.144532-.671876.242188-.847656.375-1.625.894531-2.289062 1.542968l-80 80c-.632812.664063-1.148438 1.433594-1.527344 2.273438-.101562.242188-.1875.496094-.261718.75-.242188.679688-.386719 1.390625-.433594 2.113281 0 .175781-.097656.320313-.097656.496094zm336-136h-134.238281l4.277343-21.390625c2.535157-.898437 4.929688-1.855469 7.199219-2.90625l26.203125 17.464844c3.171875 2.113281 7.390625 1.691406 10.085938-1l22.632812-22.632813c2.691406-2.695312 3.113282-6.914062 1-10.085937l-17.449218-26.175781c1.097656-2.402344 2.105468-4.800782 2.992187-7.257813l30.898437-6.175781c3.722657-.761719 6.398438-4.039063 6.398438-7.839844v-32c0-3.800781-2.675781-7.078125-6.398438-7.839844l-30.960937-6.199218c-.898437-2.539063-1.863281-4.941407-2.90625-7.199219l17.464844-26.203125c2.113281-3.171875 1.695312-7.390625-1-10.085938l-22.632813-22.632812c-2.695312-2.691406-6.914062-3.113282-10.085937-1l-26.175781 17.449218c-2.363282-1.105468-4.78125-2.101562-7.257813-2.992187l-4.285156-21.296875h134.238281zm-194.054688-40.558594c-2.605468-1.398437-5.765624-1.25-8.226562.390625l-24.582031 16.375-13.351563-13.351562 16.382813-24.574219c1.640625-2.460938 1.789062-5.621094.390625-8.226562-2.265625-4.230469-4.101563-8.679688-5.488282-13.277344-.851562-2.828125-3.191406-4.957032-6.085937-5.539063l-27.382813-5.476562c-.484374-.101563-.972656-.15625-1.464843-.160157-.136719-1.496093-.136719-3.015624-.136719-4.53125v-10.140624c0-1.515626 0-3.035157.105469-4.53125.492187-.003907.980469-.058594 1.460937-.160157l27.457032-5.484375c2.894531-.582031 5.238281-2.710937 6.089843-5.539062 1.367188-4.589844 3.191407-9.027344 5.445313-13.253906 1.40625-2.605469 1.257812-5.769532-.382813-8.234376l-16.390625-24.582031 13.351563-13.351562 24.65625 16.421875c2.453125 1.640625 5.613281 1.792968 8.214843.402344 4.207032-2.285157 8.636719-4.140626 13.214844-5.539063 2.832032-.851563 4.960938-3.195313 5.539063-6.09375l5.476562-27.382813c.097657-.484374.152344-.972656.160157-1.464843 1.503906-.074219 3.015624-.105469 4.539062-.105469h14.503906l5.796875 28.984375c.582031 2.894531 2.710938 5.238281 5.539063 6.089844 4.59375 1.382812 9.039062 3.21875 13.269531 5.488281 2.609375 1.390625 5.769531 1.238281 8.234375-.394531l24.582031-16.375 13.351563 13.351562-16.382813 24.578125c-1.640625 2.457032-1.789062 5.617188-.390625 8.222656 2.21875 4.21875 4.011719 8.648438 5.359375 13.222657.851563 2.824219 3.1875 4.949219 6.078125 5.527343l29.121094 5.824219v18.898438l-28.984375 5.789062c-2.894531.582031-5.234375 2.710938-6.085937 5.539063-1.386719 4.597656-3.222657 9.046875-5.488282 13.277344-1.398437 2.605468-1.25 5.765624.390625 8.226562l16.382813 24.574219-13.351563 13.351562-24.582031-16.375c-2.457031-1.652343-5.625-1.804687-8.226562-.390625-4.230469 2.21875-8.671876 4.011719-13.253907 5.359375-2.824219.851563-4.949219 3.1875-5.527343 6.078125l-5.832032 29.121094h-14.503906c-1.523438 0-3.035156 0-4.539062-.105469-.007813-.492187-.0625-.980469-.160157-1.460937l-5.503906-27.546875c-.578125-2.890625-2.703125-5.226563-5.527344-6.078125-4.585937-1.347656-9.03125-3.148438-13.261719-5.367188zm7.839844 38.285156c-9.800781-2.148437-19.210937-5.78125-27.914062-10.773437l16.882812-11.25c2.277344 1.050781 4.671875 2.007813 7.199219 2.90625zm-64.746094-47.589843c-4.988281-8.703125-8.621093-18.121094-10.765624-27.921875l19.015624 3.800781c.886719 2.480469 1.894532 4.894531 2.992188 7.257813zm-10.765624-80.351563c2.144531-9.800781 5.777343-19.21875 10.765624-27.921875l11.25 16.878907c-1.066406 2.335937-2.058593 4.738281-2.96875 7.203124zm47.597656-64.738281c8.703125-4.992187 18.113281-8.625 27.914062-10.773437l-3.800781 19.03125c-2.398437.878906-4.800781 1.882812-7.199219 3.015624zm-41.871094-113.734375v52.6875h-52.6875zm-64 68.6875h72c4.417969 0 8-3.582031 8-8v-72h240v96h-165.0625c-63.449219.066406-114.867188 51.480469-114.9375 114.929688v10.140624c.070312 63.449219 51.488281 114.863282 114.9375 114.929688h165.0625v112h-320zm0 0"/><path d="m216.5 232c0-22.089844-17.910156-40-40-40s-40 17.910156-40 40 17.910156 40 40 40c22.082031-.027344 39.972656-17.917969 40-40zm-64 0c0-13.253906 10.746094-24 24-24s24 10.746094 24 24-10.746094 24-24 24-24-10.746094-24-24zm0 0"/><path d="m64.5 384h224v16h-224zm0 0"/><path d="m176.5 416h112v16h-112zm0 0"/></svg>